<svg xmlns="http://www.w3.org/2000/svg" version="1.1" xmlns:xlink="http://www.w3.org/1999/xlink" xmlns:svgjs="http://svgjs.dev/svgjs" width="1500" height="299" viewBox="0 0 1500 299"><g transform="matrix(1,0,0,1,-0.9090909090909918,-1.1296601974631812)"><svg viewBox="0 0 396 79" data-background-color="#ffffff" preserveAspectRatio="xMidYMid meet" height="299" width="1500" xmlns="http://www.w3.org/2000/svg" xmlns:xlink="http://www.w3.org/1999/xlink"><g id="tight-bounds" transform="matrix(1,0,0,1,0.2400000000000091,0.29847209230632643)"><svg viewBox="0 0 395.52 78.40305581538733" height="78.40305581538733" width="395.52"><g><svg viewBox="0 0 474.6921782823636 94.09718180875797" height="78.40305581538733" width="395.52"><g transform="matrix(1,0,0,1,79.17217828236365,17.970351779299264)"><svg viewBox="0 0 395.52 58.15647825015944" height="58.15647825015944" width="395.52"><g id="textblocktransform"><svg viewBox="0 0 395.52 58.15647825015944" height="58.15647825015944" width="395.52" id="textblock"><g><svg viewBox="0 0 395.52 58.15647825015944" height="58.15647825015944" width="395.52"><g transform="matrix(1,0,0,1,0,0)"><svg width="395.52" viewBox="0.265520000000002 -29.957389999999997 308.6935100000001 45.39606911637277" height="58.15647825015944" data-palette-color="#ff851b"><path d="M37.542-1.781v0c0.052 2.462-0.297 4.696-1.048 6.702-0.75 2.006-1.828 3.703-3.234 5.091-1.413 1.383-3.08 2.511-5.001 3.384-1.913 0.872-4.053 1.469-6.417 1.789v0c-2.2 0.299-4.237 0.333-6.112 0.104-1.882-0.236-3.501-0.665-4.857-1.288-1.35-0.624-2.581-1.443-3.694-2.456-1.106-1.007-2.024-2.076-2.757-3.208-0.731-1.125-1.369-2.381-1.914-3.767-0.538-1.387-0.954-2.693-1.249-3.917-0.287-1.219-0.521-2.499-0.703-3.841v0l-0.29-2.14c-0.156-2.387 0.107-4.586 0.789-6.596 0.682-2.017 1.614-3.694 2.798-5.032 1.184-1.338 2.593-2.508 4.227-3.511 1.626-1.008 3.234-1.771 4.825-2.29 1.598-0.52 3.206-0.889 4.825-1.109v0c2.603-0.353 4.947-0.356 7.033-0.007 2.079 0.35 3.83 1.007 5.253 1.971 1.415 0.958 2.576 2.123 3.482 3.494 0.913 1.37 1.591 2.946 2.035 4.729v0l0.316 2.328c0.071 0.522-1.674 1.025-5.235 1.509v0c-0.846 0.115-2.017 0.257-3.515 0.426-1.504 0.171-2.491 0.288-2.959 0.352v0c-0.079 0.011-0.201 0.034-0.364 0.069-0.156 0.041-0.277 0.068-0.363 0.08v0c-0.416 0.057-0.757-0.075-1.022-0.396-0.265-0.314-0.467-0.717-0.608-1.209-0.147-0.491-0.305-0.981-0.473-1.47-0.174-0.488-0.453-0.884-0.837-1.188-0.378-0.305-0.857-0.418-1.439-0.34-0.581 0.079-1.077 0.247-1.485 0.505-0.417 0.252-0.725 0.603-0.927 1.054-0.202 0.445-0.36 0.89-0.475 1.336-0.108 0.445-0.153 1.006-0.134 1.683 0.019 0.684 0.046 1.259 0.083 1.725 0.036 0.466 0.1 1.083 0.19 1.851 0.084 0.769 0.144 1.333 0.18 1.691v0c0.027 0.198 0.059 0.557 0.095 1.077 0.037 0.52 0.077 0.941 0.122 1.265v0c0.548 4.036 1.897 5.966 4.045 5.789v0c0.588-0.08 1.038-0.356 1.351-0.83 0.313-0.473 0.503-0.977 0.572-1.51 0.069-0.534 0.153-1.101 0.254-1.7 0.1-0.599 0.242-1.018 0.424-1.258v0l13.209-1.794c0.541-0.026 0.876 0.258 1.004 0.853zM69.812-24.642v0l2.986 29.992c0.034 0.345 0.051 0.618 0.051 0.819-0.006 0.208-0.057 0.408-0.151 0.598-0.095 0.19-0.249 0.296-0.461 0.317v0l-12.439 1.239-0.053-0.538c-0.036-0.03-0.17-0.09-0.4-0.181-0.23-0.091-0.373-0.184-0.43-0.279v0l-0.981-9.851c-0.036-0.358-0.086-0.558-0.15-0.598-0.058-0.041-0.292-0.041-0.703 0v0l-1.652 0.164c-0.391 0.039-0.843 0.114-1.354 0.225v0l1.049 10.538c-0.037 0.298-0.145 0.497-0.323 0.595-0.184 0.099-0.462 0.167-0.834 0.204v0l-1.124 0.112c-0.763 0.076-1.959 0.212-3.587 0.407-1.629 0.196-2.868 0.336-3.717 0.42v0l-3.214 0.32c-0.703 0.07-1.093-0.283-1.171-1.059v0l-2.91-30.743c-0.008-0.08 0.012-0.149 0.06-0.207 0.04-0.064 0.128-0.157 0.263-0.277 0.135-0.121 0.209-0.188 0.221-0.203v0l13.125-1.307 1.044 10.478 4.239-0.422-1.068-10.727 12.438-1.238c0.385-0.038 0.676 0.023 0.873 0.184 0.197 0.161 0.321 0.501 0.373 1.018zM95.62 0.435l-7.526 0.452c-0.097 0.387-0.18 0.889-0.25 1.508-0.063 0.612-0.131 1.097-0.203 1.455-0.065 0.358-0.193 0.733-0.383 1.125-0.19 0.399-0.495 0.701-0.918 0.906-0.422 0.206-0.975 0.329-1.66 0.371v0l-10.561 0.634-0.05-0.828c0.702-2.647 1.721-6.702 3.056-12.165 1.335-5.463 2.375-9.6 3.121-12.41v0l0.003 0.05c0.457-1.617 1.123-4.145 1.998-7.584v0c0.018-0.034 0.039-0.079 0.063-0.134v0c0.132-0.248 0.261-0.443 0.385-0.584v0l13.212-0.694c2.249-0.135 3.502-0.013 3.759 0.365v0l0.038 0.629c0.042 0.144 0.244 0.51 0.607 1.096v0c1.868 4.75 3.235 8.204 4.099 10.363v0l0.017 0.289c0.095 0.468 0.277 0.999 0.546 1.59 0.262 0.585 0.574 1.218 0.936 1.898 0.354 0.673 0.61 1.199 0.766 1.576v0l1.19 3.465c0.686 1.862 1.677 4.341 2.971 7.435v0l-0.003-0.05 0.03 0.49c0.067 0.223 0.209 0.525 0.425 0.906 0.223 0.381 0.363 0.649 0.419 0.806v0c0.028 0.459-0.048 0.761-0.226 0.905-0.179 0.138-0.538 0.223-1.077 0.255v0l-11.349 0.682c-0.281-0.016-0.463-0.029-0.543-0.037-0.081-0.015-0.209-0.041-0.386-0.077-0.176-0.036-0.303-0.095-0.381-0.178-0.078-0.075-0.127-0.176-0.148-0.301v0l-1.153-3.668c-0.085-0.302-0.162-0.474-0.231-0.517-0.069-0.036-0.266-0.044-0.593-0.024zM88.745-7.788l-0.006-0.099zM93.943-11.145v0c-0.127-0.453-0.315-1.183-0.563-2.191-0.248-1.007-0.484-1.884-0.709-2.632-0.225-0.748-0.464-1.441-0.716-2.081v0l-0.07-1.167c-0.147-0.338-0.388-0.571-0.723-0.698v0l0.003 0.05c-0.388 0.103-0.715 1.218-0.981 3.344v0l0.07 1.178c-0.026 0.115-0.093 0.226-0.2 0.333-0.107 0.107-0.16 0.167-0.16 0.18v0c-0.396 2.415-0.719 4.364-0.97 5.849v0c0.01 0.166-0.016 0.455-0.079 0.866-0.055 0.411-0.081 0.649-0.077 0.716v0l6.069-0.365c-0.026-0.426-0.218-1.182-0.577-2.269v0l-0.032-0.539c-0.023-0.045-0.075-0.136-0.157-0.272-0.082-0.135-0.124-0.236-0.128-0.302zM109.686-19.195v0l-0.248-8.817 28.509-0.801c0.261 0.046 0.428 0.145 0.498 0.296 0.064 0.152 0.101 0.374 0.109 0.667v0l0.22 7.837c-0.016 0.394-0.237 0.597-0.663 0.609v0l-6.957 0.196 0.633 22.531c0.001 0.02-0.005 0.064-0.016 0.13-0.018 0.061-0.027 0.101-0.027 0.121 0 0.013-0.005 0.047-0.017 0.1-0.019 0.047-0.035 0.078-0.047 0.092-0.019 0.021-0.035 0.051-0.048 0.091-0.019 0.041-0.038 0.064-0.058 0.072-0.026 0.014-0.059 0.032-0.098 0.053-0.039 0.028-0.079 0.049-0.119 0.063-0.039 0.021-0.089 0.036-0.148 0.044-0.06 0.008-0.119 0.023-0.179 0.045v0l-1.57 0.044c-2.093 0.059-3.141 0.022-3.144-0.111v0c-0.127 0.004-0.323 0.019-0.589 0.046-0.26 0.021-0.453 0.033-0.579 0.037v0l-1.969 0.055c-0.373 0.01-0.906 0.035-1.599 0.075-0.693 0.033-1.236 0.055-1.629 0.066v0l-1.369 0.038-0.999-0.662-0.149-5.288c-0.013-0.947 0-2.974 0.039-6.083 0.033-3.102 0.024-5.553-0.026-7.353v0l-0.018-0.629c-0.004-0.133 0-0.34 0.012-0.621 0.006-0.274 0.007-0.477 0.003-0.61v0c-0.004-0.147-0.019-0.443-0.045-0.889-0.033-0.453-0.051-0.742-0.054-0.869v0l-6.118 0.172c-0.36 0.01-0.705-0.044-1.035-0.161-0.33-0.111-0.499-0.306-0.506-0.586zM139.307-11.486l0.004-1.47-0.049-0.541c0.321-2.659 0.619-4.512 0.896-5.557v0c0.647-2.452 1.796-4.498 3.448-6.14v0l0.591-0.589c0.789-0.911 1.985-1.691 3.587-2.339v0l0.93 0.002c1.602-0.669 4.234-1.281 7.895-1.837v0c0.913 0.003 1.873 0.075 2.879 0.218 1.006 0.136 2.119 0.366 3.339 0.689 1.226 0.323 2.404 0.833 3.535 1.53 1.138 0.697 2.079 1.529 2.823 2.498v0l-0.002 0.68c2.67 3.361 4 7.121 3.988 11.282v0c-0.013 4.693-1.101 8.514-3.262 11.46v0l-0.984 1.228c-0.756 0.925-1.695 1.722-2.817 2.392-1.122 0.663-2.31 1.17-3.564 1.52-1.261 0.35-2.468 0.596-3.622 0.739-1.147 0.143-2.294 0.213-3.441 0.211v0c-1.68-0.005-3.283-0.209-4.808-0.614-1.532-0.404-2.96-1.035-4.285-1.892-1.331-0.85-2.501-1.897-3.511-3.14-1.01-1.25-1.826-2.752-2.447-4.507-0.622-1.755-0.996-3.696-1.123-5.823zM152.793-13.798l-0.003 1.08c-0.016 5.747 1.069 8.623 3.256 8.629v0c0.607 0.002 1.134-0.11 1.581-0.335 0.447-0.225 0.812-0.578 1.093-1.057 0.281-0.473 0.513-0.952 0.694-1.438 0.181-0.493 0.31-1.106 0.385-1.839 0.075-0.733 0.124-1.376 0.145-1.93 0.028-0.56 0.043-1.23 0.046-2.01v0l0.003-0.89c0.002-0.847-0.045-1.663-0.143-2.45-0.091-0.78-0.256-1.567-0.494-2.362-0.231-0.794-0.593-1.432-1.084-1.913-0.492-0.481-1.088-0.723-1.788-0.725v0c-2.447-0.007-3.677 2.406-3.691 7.24zM174.925-11.338l0.056-1.469-0.029-0.541c0.415-2.646 0.779-4.487 1.093-5.522v0c0.734-2.427 1.955-4.432 3.663-6.014v0l0.612-0.567c0.821-0.882 2.044-1.619 3.668-2.211v0l0.929 0.036c1.625-0.611 4.277-1.13 7.956-1.556v0c0.913 0.035 1.869 0.142 2.869 0.32 1.001 0.172 2.105 0.441 3.312 0.808 1.213 0.367 2.373 0.918 3.479 1.654 1.113 0.737 2.023 1.602 2.732 2.597v0l-0.026 0.68c2.549 3.454 3.744 7.259 3.585 11.416v0c-0.18 4.69-1.403 8.469-3.668 11.337v0l-1.026 1.192c-0.788 0.897-1.755 1.661-2.9 2.29-1.145 0.623-2.35 1.087-3.616 1.392-1.273 0.305-2.488 0.508-3.646 0.611-1.151 0.103-2.3 0.132-3.446 0.088v0c-1.679-0.064-3.273-0.326-4.784-0.784-1.517-0.459-2.922-1.14-4.214-2.043-1.3-0.897-2.432-1.985-3.398-3.263-0.965-1.285-1.727-2.815-2.285-4.591-0.559-1.776-0.864-3.729-0.916-5.86zM188.485-13.169l-0.041 1.079c-0.22 5.742 0.762 8.656 2.946 8.74v0c0.606 0.023 1.137-0.07 1.592-0.279 0.455-0.209 0.832-0.548 1.13-1.018 0.298-0.462 0.546-0.933 0.745-1.412 0.199-0.486 0.349-1.094 0.45-1.824 0.101-0.73 0.173-1.371 0.214-1.923 0.048-0.559 0.087-1.228 0.117-2.007v0l0.034-0.89c0.032-0.846 0.014-1.664-0.056-2.454-0.063-0.783-0.2-1.575-0.409-2.377-0.203-0.802-0.541-1.452-1.016-1.95-0.475-0.499-1.062-0.761-1.761-0.789v0c-2.445-0.094-3.76 2.274-3.945 7.104zM211.156 5.454l2.385-32.643 4.548 0.332c1.403 0.102 3.646 0.233 6.73 0.391 3.083 0.158 5.39 0.294 6.919 0.406v0c1.323 0.097 2.554 0.26 3.694 0.49 1.133 0.23 2.244 0.582 3.332 1.056 1.088 0.474 2.006 1.039 2.753 1.695 0.747 0.663 1.327 1.504 1.741 2.523 0.42 1.02 0.583 2.175 0.489 3.465v0c-0.13 1.775-0.656 3.261-1.579 4.457-0.922 1.189-2.28 2.153-4.071 2.891v0c0.663 0.343 1.231 0.768 1.701 1.277 0.471 0.509 0.827 0.946 1.067 1.312 0.248 0.359 0.468 0.953 0.662 1.783 0.194 0.823 0.305 1.363 0.333 1.618 0.028 0.256 0.089 0.886 0.183 1.889v0c0.03 0.236 0.05 0.411 0.062 0.525v0c0.012 0.656 0.201 1.87 0.566 3.641 0.359 1.771 0.504 3.118 0.437 4.043v0c-0.043 0.592-0.241 0.875-0.594 0.849v0c-0.977-0.071-2.457-0.173-4.44-0.304-1.982-0.131-3.452-0.232-4.409-0.302v0c-0.39-0.055-0.978-0.112-1.763-0.169v0l-1.655-0.121c-0.319-0.124-0.601-0.652-0.847-1.586-0.245-0.94-0.39-1.984-0.433-3.13v0l-0.221-4.388c-0.073-0.366-0.131-0.628-0.173-0.785-0.048-0.164-0.137-0.361-0.268-0.591-0.13-0.23-0.319-0.394-0.565-0.492-0.247-0.098-0.566-0.162-0.959-0.19v0l-1.117-0.082-0.714 9.774c-0.003 0.047-0.009 0.123-0.017 0.229-0.008 0.106-0.013 0.18-0.016 0.22-0.003 0.04-0.007 0.1-0.013 0.179-0.006 0.086-0.021 0.149-0.044 0.188-0.016 0.039-0.037 0.091-0.061 0.155-0.018 0.066-0.041 0.107-0.07 0.126-0.029 0.025-0.064 0.055-0.107 0.092-0.043 0.037-0.092 0.064-0.146 0.08-0.061 0.009-0.129 0.021-0.203 0.035-0.074 0.008-0.161 0.008-0.261 0.001v0zM226.432-13.283v0c0.031 0.036 0.076 0.109 0.135 0.22 0.059 0.111 0.119 0.203 0.18 0.274 0.055 0.071 0.115 0.115 0.181 0.134v0c0.492 0.036 0.985 0.018 1.478-0.053 0.5-0.07 1.015-0.21 1.544-0.418 0.529-0.202 0.972-0.544 1.329-1.026 0.356-0.482 0.56-1.075 0.611-1.78v0c0.123-1.689-1.444-2.652-4.702-2.891v0c-0.332 0.056-0.504 0.174-0.517 0.354v0l-0.068 0.927c-0.034 0.472-0.063 1.182-0.085 2.13-0.022 0.948-0.051 1.657-0.086 2.129zM244.823 7.18l3.104-29.688c0.102-0.975 0.201-1.537 0.297-1.689v0c0.169-0.21 0.417-0.298 0.742-0.264v0l0.587 0.062c0.259 0.027 0.436 0.059 0.533 0.095v0l1.263 0.133c1.644 0.172 4.132 0.392 7.462 0.659 3.33 0.268 5.824 0.488 7.481 0.662v0l6.485 0.678c0.413 0.09 0.6 0.324 0.56 0.702v0l-0.851 8.136c-0.024 0.098-0.059 0.181-0.106 0.25-0.047 0.069-0.085 0.112-0.114 0.129-0.029 0.024-0.112 0.075-0.248 0.155-0.142 0.072-0.238 0.129-0.289 0.171v0l-11.309-1.183-0.316 3.024 1.074 0.112c0.942 0.098 2.381 0.215 4.317 0.351 1.942 0.143 3.434 0.269 4.475 0.377v0c0.451 0.047 0.75 0.169 0.897 0.366 0.14 0.196 0.194 0.456 0.16 0.78v0c-0.008 0.08-0.039 0.214-0.092 0.403-0.054 0.195-0.085 0.333-0.094 0.413v0l-0.097 0.925c-0.007 0.066-0.011 0.2-0.011 0.401-0.008 0.207-0.02 0.383-0.036 0.529v0l-0.071 0.686c-0.037 0.358-0.058 0.715-0.062 1.069-0.004 0.362-0.02 0.675-0.048 0.94v0l-0.065 0.627c-0.1 0.191-0.177 0.313-0.23 0.368-0.06 0.061-0.146 0.085-0.259 0.074v0l0.005-0.05c-0.603-0.063-1.642-0.128-3.116-0.195-1.48-0.074-2.658-0.157-3.534-0.249v0l-3.898-0.408-0.327 3.123c0.126 0.013 0.318 0.04 0.575 0.08 0.264 0.041 0.459 0.068 0.584 0.082v0c0.729 0.076 1.813 0.166 3.25 0.269 1.437 0.103 2.471 0.188 3.1 0.254v0l3.123 0.326c0.842 0.088 1.369 0.24 1.582 0.457v0c0.069 0.108 0.122 0.214 0.157 0.319v0l-0.815 7.797c-0.035 0.338-0.125 0.59-0.27 0.756-0.151 0.165-0.407 0.236-0.766 0.211v0l-24.129-2.523zM275.469-21.729l12.838 1.773 2.158 12.513c1.682-3.112 3.285-6.239 4.809-9.38v0c0.05-0.121 0.179-0.349 0.387-0.683 0.214-0.334 0.354-0.611 0.418-0.831v0c0.179-0.372 1.078-0.447 2.696-0.223v0c0.119 0.016 0.276 0.045 0.472 0.085 0.202 0.048 0.366 0.081 0.492 0.098v0c2.646 0.332 5.5 0.693 8.562 1.082v0c0.383 0.1 0.603 0.534 0.658 1.303v0l-13.772 18.428 0.162 1.678c-0.13 0.938-0.311 2.373-0.544 4.306-0.232 1.926-0.4 3.263-0.503 4.009v0l-0.102 0.733c-0.097 0.215-0.248 0.383-0.453 0.503-0.205 0.12-0.479 0.176-0.821 0.169-0.336-0.006-0.63-0.02-0.882-0.041-0.252-0.028-0.608-0.084-1.067-0.168-0.454-0.076-0.763-0.126-0.929-0.148v0l-9.272-1.281-0.631-1.127 1.401-10.144-3.954-12.741-2.091-4.003c-0.961-2.838-1.388-4.637-1.284-5.397v0c0.062-0.449 0.479-0.62 1.252-0.513z" opacity="1" transform="matrix(1,0,0,1,0,0)" fill="#ff851b" class="wordmark-text-0" data-fill-palette-color="primary" id="text-0"></path></svg></g></svg></g></svg></g></svg></g><g><svg viewBox="0 0 61.04413912704936 94.09718180875797" height="94.09718180875797" width="61.04413912704936"><g><svg xmlns="http://www.w3.org/2000/svg" xmlns:xlink="http://www.w3.org/1999/xlink" version="1.1" x="0" y="0" viewBox="21.89778988783908 1.117 62.334817960952364 96.08671336129109" enable-background="new 0 0 100 100" xml:space="preserve" height="94.09718180875797" width="61.04413912704936" class="icon-icon-0" data-fill-palette-color="accent" id="icon-0"></svg></g></svg></g></svg></g><defs></defs><mask id="785c87bb-704e-4289-a2b8-c254b055632f"><g id="SvgjsG1004"><svg viewBox="0 0 395.52 78.40305581538733" height="78.40305581538733" width="395.52"><g><svg viewBox="0 0 474.6921782823636 94.09718180875797" height="78.40305581538733" width="395.52"><g transform="matrix(1,0,0,1,79.17217828236365,17.970351779299264)"><svg viewBox="0 0 395.52 58.15647825015944" height="58.15647825015944" width="395.52"><g id="SvgjsG1003"><svg viewBox="0 0 395.52 58.15647825015944" height="58.15647825015944" width="395.52" id="SvgjsSvg1002"><g><svg viewBox="0 0 395.52 58.15647825015944" height="58.15647825015944" width="395.52"><g transform="matrix(1,0,0,1,0,0)"><svg width="395.52" viewBox="0.265520000000002 -29.957389999999997 308.6935100000001 45.39606911637277" height="58.15647825015944" data-palette-color="#ff851b"><path d="M37.542-1.781v0c0.052 2.462-0.297 4.696-1.048 6.702-0.75 2.006-1.828 3.703-3.234 5.091-1.413 1.383-3.08 2.511-5.001 3.384-1.913 0.872-4.053 1.469-6.417 1.789v0c-2.2 0.299-4.237 0.333-6.112 0.104-1.882-0.236-3.501-0.665-4.857-1.288-1.35-0.624-2.581-1.443-3.694-2.456-1.106-1.007-2.024-2.076-2.757-3.208-0.731-1.125-1.369-2.381-1.914-3.767-0.538-1.387-0.954-2.693-1.249-3.917-0.287-1.219-0.521-2.499-0.703-3.841v0l-0.29-2.14c-0.156-2.387 0.107-4.586 0.789-6.596 0.682-2.017 1.614-3.694 2.798-5.032 1.184-1.338 2.593-2.508 4.227-3.511 1.626-1.008 3.234-1.771 4.825-2.29 1.598-0.52 3.206-0.889 4.825-1.109v0c2.603-0.353 4.947-0.356 7.033-0.007 2.079 0.35 3.83 1.007 5.253 1.971 1.415 0.958 2.576 2.123 3.482 3.494 0.913 1.37 1.591 2.946 2.035 4.729v0l0.316 2.328c0.071 0.522-1.674 1.025-5.235 1.509v0c-0.846 0.115-2.017 0.257-3.515 0.426-1.504 0.171-2.491 0.288-2.959 0.352v0c-0.079 0.011-0.201 0.034-0.364 0.069-0.156 0.041-0.277 0.068-0.363 0.08v0c-0.416 0.057-0.757-0.075-1.022-0.396-0.265-0.314-0.467-0.717-0.608-1.209-0.147-0.491-0.305-0.981-0.473-1.47-0.174-0.488-0.453-0.884-0.837-1.188-0.378-0.305-0.857-0.418-1.439-0.34-0.581 0.079-1.077 0.247-1.485 0.505-0.417 0.252-0.725 0.603-0.927 1.054-0.202 0.445-0.36 0.89-0.475 1.336-0.108 0.445-0.153 1.006-0.134 1.683 0.019 0.684 0.046 1.259 0.083 1.725 0.036 0.466 0.1 1.083 0.19 1.851 0.084 0.769 0.144 1.333 0.18 1.691v0c0.027 0.198 0.059 0.557 0.095 1.077 0.037 0.52 0.077 0.941 0.122 1.265v0c0.548 4.036 1.897 5.966 4.045 5.789v0c0.588-0.08 1.038-0.356 1.351-0.83 0.313-0.473 0.503-0.977 0.572-1.51 0.069-0.534 0.153-1.101 0.254-1.7 0.1-0.599 0.242-1.018 0.424-1.258v0l13.209-1.794c0.541-0.026 0.876 0.258 1.004 0.853zM69.812-24.642v0l2.986 29.992c0.034 0.345 0.051 0.618 0.051 0.819-0.006 0.208-0.057 0.408-0.151 0.598-0.095 0.19-0.249 0.296-0.461 0.317v0l-12.439 1.239-0.053-0.538c-0.036-0.03-0.17-0.09-0.4-0.181-0.23-0.091-0.373-0.184-0.43-0.279v0l-0.981-9.851c-0.036-0.358-0.086-0.558-0.15-0.598-0.058-0.041-0.292-0.041-0.703 0v0l-1.652 0.164c-0.391 0.039-0.843 0.114-1.354 0.225v0l1.049 10.538c-0.037 0.298-0.145 0.497-0.323 0.595-0.184 0.099-0.462 0.167-0.834 0.204v0l-1.124 0.112c-0.763 0.076-1.959 0.212-3.587 0.407-1.629 0.196-2.868 0.336-3.717 0.42v0l-3.214 0.32c-0.703 0.07-1.093-0.283-1.171-1.059v0l-2.91-30.743c-0.008-0.08 0.012-0.149 0.06-0.207 0.04-0.064 0.128-0.157 0.263-0.277 0.135-0.121 0.209-0.188 0.221-0.203v0l13.125-1.307 1.044 10.478 4.239-0.422-1.068-10.727 12.438-1.238c0.385-0.038 0.676 0.023 0.873 0.184 0.197 0.161 0.321 0.501 0.373 1.018zM95.62 0.435l-7.526 0.452c-0.097 0.387-0.18 0.889-0.25 1.508-0.063 0.612-0.131 1.097-0.203 1.455-0.065 0.358-0.193 0.733-0.383 1.125-0.19 0.399-0.495 0.701-0.918 0.906-0.422 0.206-0.975 0.329-1.66 0.371v0l-10.561 0.634-0.05-0.828c0.702-2.647 1.721-6.702 3.056-12.165 1.335-5.463 2.375-9.6 3.121-12.41v0l0.003 0.05c0.457-1.617 1.123-4.145 1.998-7.584v0c0.018-0.034 0.039-0.079 0.063-0.134v0c0.132-0.248 0.261-0.443 0.385-0.584v0l13.212-0.694c2.249-0.135 3.502-0.013 3.759 0.365v0l0.038 0.629c0.042 0.144 0.244 0.51 0.607 1.096v0c1.868 4.75 3.235 8.204 4.099 10.363v0l0.017 0.289c0.095 0.468 0.277 0.999 0.546 1.59 0.262 0.585 0.574 1.218 0.936 1.898 0.354 0.673 0.61 1.199 0.766 1.576v0l1.19 3.465c0.686 1.862 1.677 4.341 2.971 7.435v0l-0.003-0.05 0.03 0.49c0.067 0.223 0.209 0.525 0.425 0.906 0.223 0.381 0.363 0.649 0.419 0.806v0c0.028 0.459-0.048 0.761-0.226 0.905-0.179 0.138-0.538 0.223-1.077 0.255v0l-11.349 0.682c-0.281-0.016-0.463-0.029-0.543-0.037-0.081-0.015-0.209-0.041-0.386-0.077-0.176-0.036-0.303-0.095-0.381-0.178-0.078-0.075-0.127-0.176-0.148-0.301v0l-1.153-3.668c-0.085-0.302-0.162-0.474-0.231-0.517-0.069-0.036-0.266-0.044-0.593-0.024zM88.745-7.788l-0.006-0.099zM93.943-11.145v0c-0.127-0.453-0.315-1.183-0.563-2.191-0.248-1.007-0.484-1.884-0.709-2.632-0.225-0.748-0.464-1.441-0.716-2.081v0l-0.07-1.167c-0.147-0.338-0.388-0.571-0.723-0.698v0l0.003 0.05c-0.388 0.103-0.715 1.218-0.981 3.344v0l0.07 1.178c-0.026 0.115-0.093 0.226-0.2 0.333-0.107 0.107-0.16 0.167-0.16 0.18v0c-0.396 2.415-0.719 4.364-0.97 5.849v0c0.01 0.166-0.016 0.455-0.079 0.866-0.055 0.411-0.081 0.649-0.077 0.716v0l6.069-0.365c-0.026-0.426-0.218-1.182-0.577-2.269v0l-0.032-0.539c-0.023-0.045-0.075-0.136-0.157-0.272-0.082-0.135-0.124-0.236-0.128-0.302zM109.686-19.195v0l-0.248-8.817 28.509-0.801c0.261 0.046 0.428 0.145 0.498 0.296 0.064 0.152 0.101 0.374 0.109 0.667v0l0.22 7.837c-0.016 0.394-0.237 0.597-0.663 0.609v0l-6.957 0.196 0.633 22.531c0.001 0.02-0.005 0.064-0.016 0.13-0.018 0.061-0.027 0.101-0.027 0.121 0 0.013-0.005 0.047-0.017 0.1-0.019 0.047-0.035 0.078-0.047 0.092-0.019 0.021-0.035 0.051-0.048 0.091-0.019 0.041-0.038 0.064-0.058 0.072-0.026 0.014-0.059 0.032-0.098 0.053-0.039 0.028-0.079 0.049-0.119 0.063-0.039 0.021-0.089 0.036-0.148 0.044-0.06 0.008-0.119 0.023-0.179 0.045v0l-1.57 0.044c-2.093 0.059-3.141 0.022-3.144-0.111v0c-0.127 0.004-0.323 0.019-0.589 0.046-0.26 0.021-0.453 0.033-0.579 0.037v0l-1.969 0.055c-0.373 0.01-0.906 0.035-1.599 0.075-0.693 0.033-1.236 0.055-1.629 0.066v0l-1.369 0.038-0.999-0.662-0.149-5.288c-0.013-0.947 0-2.974 0.039-6.083 0.033-3.102 0.024-5.553-0.026-7.353v0l-0.018-0.629c-0.004-0.133 0-0.34 0.012-0.621 0.006-0.274 0.007-0.477 0.003-0.61v0c-0.004-0.147-0.019-0.443-0.045-0.889-0.033-0.453-0.051-0.742-0.054-0.869v0l-6.118 0.172c-0.36 0.01-0.705-0.044-1.035-0.161-0.33-0.111-0.499-0.306-0.506-0.586zM139.307-11.486l0.004-1.47-0.049-0.541c0.321-2.659 0.619-4.512 0.896-5.557v0c0.647-2.452 1.796-4.498 3.448-6.14v0l0.591-0.589c0.789-0.911 1.985-1.691 3.587-2.339v0l0.93 0.002c1.602-0.669 4.234-1.281 7.895-1.837v0c0.913 0.003 1.873 0.075 2.879 0.218 1.006 0.136 2.119 0.366 3.339 0.689 1.226 0.323 2.404 0.833 3.535 1.53 1.138 0.697 2.079 1.529 2.823 2.498v0l-0.002 0.68c2.67 3.361 4 7.121 3.988 11.282v0c-0.013 4.693-1.101 8.514-3.262 11.46v0l-0.984 1.228c-0.756 0.925-1.695 1.722-2.817 2.392-1.122 0.663-2.31 1.17-3.564 1.52-1.261 0.35-2.468 0.596-3.622 0.739-1.147 0.143-2.294 0.213-3.441 0.211v0c-1.68-0.005-3.283-0.209-4.808-0.614-1.532-0.404-2.96-1.035-4.285-1.892-1.331-0.85-2.501-1.897-3.511-3.14-1.01-1.25-1.826-2.752-2.447-4.507-0.622-1.755-0.996-3.696-1.123-5.823zM152.793-13.798l-0.003 1.08c-0.016 5.747 1.069 8.623 3.256 8.629v0c0.607 0.002 1.134-0.11 1.581-0.335 0.447-0.225 0.812-0.578 1.093-1.057 0.281-0.473 0.513-0.952 0.694-1.438 0.181-0.493 0.31-1.106 0.385-1.839 0.075-0.733 0.124-1.376 0.145-1.93 0.028-0.56 0.043-1.23 0.046-2.01v0l0.003-0.89c0.002-0.847-0.045-1.663-0.143-2.45-0.091-0.78-0.256-1.567-0.494-2.362-0.231-0.794-0.593-1.432-1.084-1.913-0.492-0.481-1.088-0.723-1.788-0.725v0c-2.447-0.007-3.677 2.406-3.691 7.24zM174.925-11.338l0.056-1.469-0.029-0.541c0.415-2.646 0.779-4.487 1.093-5.522v0c0.734-2.427 1.955-4.432 3.663-6.014v0l0.612-0.567c0.821-0.882 2.044-1.619 3.668-2.211v0l0.929 0.036c1.625-0.611 4.277-1.13 7.956-1.556v0c0.913 0.035 1.869 0.142 2.869 0.32 1.001 0.172 2.105 0.441 3.312 0.808 1.213 0.367 2.373 0.918 3.479 1.654 1.113 0.737 2.023 1.602 2.732 2.597v0l-0.026 0.68c2.549 3.454 3.744 7.259 3.585 11.416v0c-0.18 4.69-1.403 8.469-3.668 11.337v0l-1.026 1.192c-0.788 0.897-1.755 1.661-2.9 2.29-1.145 0.623-2.35 1.087-3.616 1.392-1.273 0.305-2.488 0.508-3.646 0.611-1.151 0.103-2.3 0.132-3.446 0.088v0c-1.679-0.064-3.273-0.326-4.784-0.784-1.517-0.459-2.922-1.14-4.214-2.043-1.3-0.897-2.432-1.985-3.398-3.263-0.965-1.285-1.727-2.815-2.285-4.591-0.559-1.776-0.864-3.729-0.916-5.86zM188.485-13.169l-0.041 1.079c-0.22 5.742 0.762 8.656 2.946 8.74v0c0.606 0.023 1.137-0.07 1.592-0.279 0.455-0.209 0.832-0.548 1.13-1.018 0.298-0.462 0.546-0.933 0.745-1.412 0.199-0.486 0.349-1.094 0.45-1.824 0.101-0.73 0.173-1.371 0.214-1.923 0.048-0.559 0.087-1.228 0.117-2.007v0l0.034-0.89c0.032-0.846 0.014-1.664-0.056-2.454-0.063-0.783-0.2-1.575-0.409-2.377-0.203-0.802-0.541-1.452-1.016-1.95-0.475-0.499-1.062-0.761-1.761-0.789v0c-2.445-0.094-3.76 2.274-3.945 7.104zM211.156 5.454l2.385-32.643 4.548 0.332c1.403 0.102 3.646 0.233 6.73 0.391 3.083 0.158 5.39 0.294 6.919 0.406v0c1.323 0.097 2.554 0.26 3.694 0.49 1.133 0.23 2.244 0.582 3.332 1.056 1.088 0.474 2.006 1.039 2.753 1.695 0.747 0.663 1.327 1.504 1.741 2.523 0.42 1.02 0.583 2.175 0.489 3.465v0c-0.13 1.775-0.656 3.261-1.579 4.457-0.922 1.189-2.28 2.153-4.071 2.891v0c0.663 0.343 1.231 0.768 1.701 1.277 0.471 0.509 0.827 0.946 1.067 1.312 0.248 0.359 0.468 0.953 0.662 1.783 0.194 0.823 0.305 1.363 0.333 1.618 0.028 0.256 0.089 0.886 0.183 1.889v0c0.03 0.236 0.05 0.411 0.062 0.525v0c0.012 0.656 0.201 1.87 0.566 3.641 0.359 1.771 0.504 3.118 0.437 4.043v0c-0.043 0.592-0.241 0.875-0.594 0.849v0c-0.977-0.071-2.457-0.173-4.44-0.304-1.982-0.131-3.452-0.232-4.409-0.302v0c-0.39-0.055-0.978-0.112-1.763-0.169v0l-1.655-0.121c-0.319-0.124-0.601-0.652-0.847-1.586-0.245-0.94-0.39-1.984-0.433-3.13v0l-0.221-4.388c-0.073-0.366-0.131-0.628-0.173-0.785-0.048-0.164-0.137-0.361-0.268-0.591-0.13-0.23-0.319-0.394-0.565-0.492-0.247-0.098-0.566-0.162-0.959-0.19v0l-1.117-0.082-0.714 9.774c-0.003 0.047-0.009 0.123-0.017 0.229-0.008 0.106-0.013 0.18-0.016 0.22-0.003 0.04-0.007 0.1-0.013 0.179-0.006 0.086-0.021 0.149-0.044 0.188-0.016 0.039-0.037 0.091-0.061 0.155-0.018 0.066-0.041 0.107-0.07 0.126-0.029 0.025-0.064 0.055-0.107 0.092-0.043 0.037-0.092 0.064-0.146 0.08-0.061 0.009-0.129 0.021-0.203 0.035-0.074 0.008-0.161 0.008-0.261 0.001v0zM226.432-13.283v0c0.031 0.036 0.076 0.109 0.135 0.22 0.059 0.111 0.119 0.203 0.18 0.274 0.055 0.071 0.115 0.115 0.181 0.134v0c0.492 0.036 0.985 0.018 1.478-0.053 0.5-0.07 1.015-0.21 1.544-0.418 0.529-0.202 0.972-0.544 1.329-1.026 0.356-0.482 0.56-1.075 0.611-1.78v0c0.123-1.689-1.444-2.652-4.702-2.891v0c-0.332 0.056-0.504 0.174-0.517 0.354v0l-0.068 0.927c-0.034 0.472-0.063 1.182-0.085 2.13-0.022 0.948-0.051 1.657-0.086 2.129zM244.823 7.18l3.104-29.688c0.102-0.975 0.201-1.537 0.297-1.689v0c0.169-0.21 0.417-0.298 0.742-0.264v0l0.587 0.062c0.259 0.027 0.436 0.059 0.533 0.095v0l1.263 0.133c1.644 0.172 4.132 0.392 7.462 0.659 3.33 0.268 5.824 0.488 7.481 0.662v0l6.485 0.678c0.413 0.09 0.6 0.324 0.56 0.702v0l-0.851 8.136c-0.024 0.098-0.059 0.181-0.106 0.25-0.047 0.069-0.085 0.112-0.114 0.129-0.029 0.024-0.112 0.075-0.248 0.155-0.142 0.072-0.238 0.129-0.289 0.171v0l-11.309-1.183-0.316 3.024 1.074 0.112c0.942 0.098 2.381 0.215 4.317 0.351 1.942 0.143 3.434 0.269 4.475 0.377v0c0.451 0.047 0.75 0.169 0.897 0.366 0.14 0.196 0.194 0.456 0.16 0.78v0c-0.008 0.08-0.039 0.214-0.092 0.403-0.054 0.195-0.085 0.333-0.094 0.413v0l-0.097 0.925c-0.007 0.066-0.011 0.2-0.011 0.401-0.008 0.207-0.02 0.383-0.036 0.529v0l-0.071 0.686c-0.037 0.358-0.058 0.715-0.062 1.069-0.004 0.362-0.02 0.675-0.048 0.94v0l-0.065 0.627c-0.1 0.191-0.177 0.313-0.23 0.368-0.06 0.061-0.146 0.085-0.259 0.074v0l0.005-0.05c-0.603-0.063-1.642-0.128-3.116-0.195-1.48-0.074-2.658-0.157-3.534-0.249v0l-3.898-0.408-0.327 3.123c0.126 0.013 0.318 0.04 0.575 0.08 0.264 0.041 0.459 0.068 0.584 0.082v0c0.729 0.076 1.813 0.166 3.25 0.269 1.437 0.103 2.471 0.188 3.1 0.254v0l3.123 0.326c0.842 0.088 1.369 0.24 1.582 0.457v0c0.069 0.108 0.122 0.214 0.157 0.319v0l-0.815 7.797c-0.035 0.338-0.125 0.59-0.27 0.756-0.151 0.165-0.407 0.236-0.766 0.211v0l-24.129-2.523zM275.469-21.729l12.838 1.773 2.158 12.513c1.682-3.112 3.285-6.239 4.809-9.38v0c0.05-0.121 0.179-0.349 0.387-0.683 0.214-0.334 0.354-0.611 0.418-0.831v0c0.179-0.372 1.078-0.447 2.696-0.223v0c0.119 0.016 0.276 0.045 0.472 0.085 0.202 0.048 0.366 0.081 0.492 0.098v0c2.646 0.332 5.5 0.693 8.562 1.082v0c0.383 0.1 0.603 0.534 0.658 1.303v0l-13.772 18.428 0.162 1.678c-0.13 0.938-0.311 2.373-0.544 4.306-0.232 1.926-0.4 3.263-0.503 4.009v0l-0.102 0.733c-0.097 0.215-0.248 0.383-0.453 0.503-0.205 0.12-0.479 0.176-0.821 0.169-0.336-0.006-0.63-0.02-0.882-0.041-0.252-0.028-0.608-0.084-1.067-0.168-0.454-0.076-0.763-0.126-0.929-0.148v0l-9.272-1.281-0.631-1.127 1.401-10.144-3.954-12.741-2.091-4.003c-0.961-2.838-1.388-4.637-1.284-5.397v0c0.062-0.449 0.479-0.62 1.252-0.513z" opacity="1" transform="matrix(1,0,0,1,0,0)" fill="black" class="wordmark-text-0" id="SvgjsPath1001"></path></svg></g></svg></g></svg></g></svg></g><g><svg viewBox="0 0 61.04413912704936 94.09718180875797" height="94.09718180875797" width="61.04413912704936"><g><svg xmlns="http://www.w3.org/2000/svg" xmlns:xlink="http://www.w3.org/1999/xlink" version="1.1" x="0" y="0" viewBox="21.89778988783908 1.117 62.334817960952364 96.08671336129109" enable-background="new 0 0 100 100" xml:space="preserve" height="94.09718180875797" width="61.04413912704936" class="icon-icon-0" data-fill-palette-color="accent" id="SvgjsSvg1000"><g fill="white"><path fill="black" d="M75.773 6.375C73.867 8.875 73.279 11.09 71.982 15.951L61.248 56.059 76.269 60.077C82.291 35.921 82.129 18.337 75.773 6.375"></path><path d="M77.359 2.217C77.13 1.779 76.56 1.117 75.713 1.117 73.516 1.117 71.156 5.457 68.496 14.397 64.268 30.18 56.762 58.247 56.762 58.247L56.635 58.726 58.711 59.281 50.348 90.505C49.6 93.302 50.626 95.07 53.422 95.817L58.397 97.15C61.698 98.035 69.051 87.787 70.883 80.933 72.557 74.691 72.721 64.758 70.629 62.47L78.965 64.703 79.094 64.224C91.127 19.274 78.393 3.408 77.359 2.217M76.27 60.076L61.249 56.058 71.983 15.951C73.28 11.09 73.868 8.875 75.774 6.375 82.129 18.337 82.291 35.921 76.27 60.076" fill="white"></path></g><g fill="white"><path fill="black" d="M43.148 55.876C39.848 35.761 34.042 22.562 25.411 15.572 24.83 18.006 25.105 19.877 25.699 23.893L25.754 24.285 30.628 57.705z"></path><path d="M39.896 59.667L46.897 58.647 46.826 58.157C41.29 20.207 26.48 12.273 25.25 11.674 25.09 11.55 24.661 11.259 24.125 11.259 23.696 11.259 23.301 11.449 22.986 11.801 21.777 13.161 21.578 17.106 22.376 23.882 24.32 37.22 27.786 60.935 27.786 60.935L27.857 61.427 29.694 61.156 33.528 87.458C33.875 89.82 35.229 90.825 37.591 90.482L41.798 89.869C44.586 89.462 46.813 79.299 45.967 73.51 45.215 68.338 42.208 60.953 39.896 59.667M25.754 24.285L25.699 23.893C25.106 19.876 24.831 18.006 25.411 15.572 34.042 22.562 39.848 35.761 43.148 55.876L30.627 57.705z" fill="white"></path></g></svg></g></svg></g></svg></g><defs><mask></mask></defs></svg><rect width="395.52" height="78.40305581538733" fill="black" stroke="none" visibility="hidden"></rect></g></mask><linearGradient x1="0" x2="1" y1="0.5" y2="0.5" id="7d214300-3e5e-4f3f-91bf-1a551372d0c3"><stop stop-color="#ffa62e" offset="0"></stop><stop stop-color="#f71b3d" offset="1"></stop></linearGradient><rect width="395.52" height="78.40305581538733" fill="url(#7d214300-3e5e-4f3f-91bf-1a551372d0c3)" mask="url(#785c87bb-704e-4289-a2b8-c254b055632f)" data-fill-palette-color="accent"></rect></svg><rect width="395.52" height="78.40305581538733" fill="none" stroke="none" visibility="hidden"></rect></g></svg></g></svg>