<svg xmlns="http://www.w3.org/2000/svg" version="1.1" xmlns:xlink="http://www.w3.org/1999/xlink" xmlns:svgjs="http://svgjs.dev/svgjs" width="1500" height="1500" viewBox="0 0 1500 1500"><rect width="1500" height="1500" fill="#ffffff"></rect><g transform="matrix(0.6666666666666666,0,0,0.6666666666666666,249.39402064918988,598.3282752260031)"><svg viewBox="0 0 396 120" data-background-color="#f9f6ed" preserveAspectRatio="xMidYMid meet" height="454" width="1500" xmlns="http://www.w3.org/2000/svg" xmlns:xlink="http://www.w3.org/1999/xlink"><g id="tight-bounds" transform="matrix(1,0,0,1,0.23996782292078933,0.1341640073115684)"><svg viewBox="0 0 395.52 119.73167198537689" height="119.73167198537689" width="395.52"><g><svg viewBox="0 0 395.52 119.73167198537689" height="119.73167198537689" width="395.52"><g><svg viewBox="0 0 491.67918314936423 148.84094528437936" height="119.73167198537689" width="395.52"><g transform="matrix(1,0,0,1,96.15918314936428,0)"><svg viewBox="0 0 395.52 148.84094528437936" height="148.84094528437936" width="395.52"><g id="textblocktransform"><svg viewBox="0 0 395.52 148.84094528437936" height="148.84094528437936" width="395.52" id="textblock"><g><svg viewBox="0 0 395.52 108.01991002979777" height="108.01991002979777" width="395.52"><path d="M394.594 23.168C392.735 11.956 387.435 8.839 387.435 8.839 371.165-2.71 350.86-0.221 332.619 1.439 300.414 1.506 268.339 3.973 236.208 5.296 168.767 5.497 100.749 2.179 33.643 10.364 27.339 12.875-6.54 10.857 1.121 24.603 3.129 30.322 10.456 36.668 10.232 41.915 11.236 42.835 12.631 40.727 13.226 42.05 15.309 45.615 18.711 43.934 21.501 46.042 17.614 51.67 20.403 56.357 23.062 61.268 18.377 62.546 12.371 61.941 9.675 66.179 9.396 69.251 7.89 68.668 6.235 68.534 5.026 68.444 2.59 68.78 2.999 69.745 4.394 73.041-1.594 74.947 2.162 78.176-0.422 81.675 3.948 84.702 3.353 88.492 3.278 89.254 3.687 89.905 4.338 90.084 7.22 91.048 3.018 92.932 3.464 94.973 33.029 108.921 65.104 99.278 95.394 105.692 103.259 101.207 97.346 107.284 100.489 106.342 102.943 105.243 104.728 109.795 107.499 107.217 107.927 106.477 107.276 104.727 108.8 105.064 109.6 105.243 110.307 105.198 110.418 104.167 110.586 102.619 109.117 103.584 108.726 102.776 112.947 98.695 111.906 108.405 115.866 108.001 115.68 106.813 114.528 105.109 116.889 105.333 119.232 103.629 119.306 102.216 121.389 106.05 121.463 106.88 121.835 107.463 122.43 107.867 128.938 103.696 135.409 109.347 142.233 107.463 146.417 105.4 150.433 108.584 154.672 107.8 156.16 107.172 157.666 106.05 159.098 107.934 176.632 108.338 195.319 106.656 211.943 108.001 256.364 105.49 303.836 109.033 350.674 105.714 361.719 104.436 373.192 102.619 383.958 101.162 383.958 101.162 392.679 97.17 392.679 79.23S394.538 63.533 394.817 49.248C395.096 34.964 396.398 34.381 394.538 23.168Z" opacity="1" fill="#000000" data-fill-palette-color="tertiary"></path><g transform="matrix(1,0,0,1,55.76832,26.068561146666667)"><svg width="283.98335999999995" viewBox="1.85 -36.15 229.93 45.25" height="55.88278773646444" data-palette-color="#f9f6ed"><path d="M16.4 0.6Q1.85 0.6 1.85-12.5L1.85-12.5Q1.85-18.6 3.83-23.38 5.8-28.15 9.5-31.05L9.5-31.05Q14.55-34.9 21.65-34.9L21.65-34.9Q27.75-34.9 31.3-32.3 34.85-29.7 34.85-24.75L34.85-24.75Q34.85-23.55 34.6-21.9L34.6-21.9 29.75-21.9Q29.95-23.4 29.95-24L29.95-24Q29.95-27.4 27.85-29.13 25.75-30.85 21.95-30.85L21.95-30.85Q16.2-30.85 12.48-27.73 8.75-24.6 7.45-19.05L7.45-19.05Q6.75-16.15 6.75-12.9L6.75-12.9Q6.75-7.95 9.05-5.7 11.35-3.45 16.1-3.45L16.1-3.45Q21.05-3.45 24.25-5.7 27.45-7.95 28.25-12.3L28.25-12.3 32.9-12.3Q31.8-5.9 27.38-2.65 22.95 0.6 16.4 0.6L16.4 0.6ZM36.75 0L43.1-36.15 47.5-36.15 45.25-23.35 45.45-23.35Q47-24.95 49.17-25.93 51.35-26.9 53.55-26.9L53.55-26.9Q57.35-26.9 59.37-25.43 61.4-23.95 61.4-20.7L61.4-20.7Q61.4-19.45 61.05-17.45L61.05-17.45 58 0 53.6 0 56.6-17.15Q56.85-18.8 56.85-19.8L56.85-19.8Q56.85-21.7 55.82-22.48 54.8-23.25 52.95-23.25L52.95-23.25Q50.9-23.25 48.97-22.25 47.05-21.25 45.65-19.4 44.25-17.55 43.8-15.05L43.8-15.05 41.15 0 36.75 0ZM73.2 0.6Q69.35 0.6 67.15-1.83 64.95-4.25 64.95-8.95L64.95-8.95Q64.95-14.3 66.6-18.38 68.25-22.45 71.12-24.68 74-26.9 77.55-26.9L77.55-26.9Q80.3-26.9 82-26.05 83.7-25.2 84.65-23.3L84.65-23.3 84.95-23.3 86.5-26.3 89.85-26.3 88.6-19.65Q85.9-5 85.9-4.4L85.9-4.4Q85.9-3.05 87.4-3.05L87.4-3.05 89.4-3.05 88.9-0.2Q88.4 0.1 87.52 0.35 86.65 0.6 85.6 0.6L85.6 0.6Q81.95 0.6 81.95-3.15L81.95-3.15Q81.95-3.8 82-4.15L82-4.15 81.75-4.15Q80.4-1.85 78.1-0.63 75.8 0.6 73.2 0.6L73.2 0.6ZM74.3-3.05Q77.45-3.05 79.52-5.3 81.6-7.55 82.55-10.78 83.5-14 83.5-17.05L83.5-17.05Q83.5-20.15 82.22-21.7 80.95-23.25 78.15-23.25L78.15-23.25Q75.4-23.25 73.45-21.35 71.5-19.45 70.52-16.25 69.55-13.05 69.55-9.2L69.55-9.2Q69.55-3.05 74.3-3.05L74.3-3.05ZM98.44 0.55Q95.94 0.55 94.84-0.6 93.74-1.75 93.74-3.6L93.74-3.6Q93.74-4.4 94.19-6.85L94.19-6.85 96.94-22.65 93.74-22.65 94.39-26.3 97.59-26.3 99.89-33.6 103.29-33.6 101.99-26.3 106.44-26.3 105.79-22.65 101.34-22.65 98.29-5.4Q98.24-5.15 98.24-4.75L98.24-4.75Q98.24-3.05 99.89-3.05L99.89-3.05 102.34-3.05 101.84-0.15Q101.19 0.15 100.22 0.35 99.24 0.55 98.44 0.55L98.44 0.55ZM117.39 0.6Q112.34 0.6 109.52-2.15 106.69-4.9 106.69-9.8L106.69-9.8Q106.69-11.1 106.94-13.45L106.94-13.45Q107.94-20.25 111.34-23.58 114.74-26.9 120.59-26.9L120.59-26.9Q125.69-26.9 128.52-24.2 131.34-21.5 131.34-16.65L131.34-16.65Q131.34-15.85 131.04-12.85L131.04-12.85Q130.04-6.05 126.64-2.73 123.24 0.6 117.39 0.6L117.39 0.6ZM117.59-3.1Q121.54-3.1 123.69-5.55 125.84-8 126.64-13.45L126.64-13.45Q126.94-15.55 126.94-17.15L126.94-17.15Q126.84-20.15 125.22-21.7 123.59-23.25 120.39-23.25L120.39-23.25Q116.44-23.25 114.29-20.78 112.14-18.3 111.34-12.85L111.34-12.85Q111.09-11.1 111.09-9.15L111.09-9.15Q111.19-6.2 112.82-4.65 114.44-3.1 117.59-3.1L117.59-3.1ZM145.19 0.6Q140.14 0.6 137.31-2.15 134.49-4.9 134.49-9.8L134.49-9.8Q134.49-11.1 134.74-13.45L134.74-13.45Q135.74-20.25 139.14-23.58 142.54-26.9 148.39-26.9L148.39-26.9Q153.49-26.9 156.31-24.2 159.14-21.5 159.14-16.65L159.14-16.65Q159.14-15.85 158.84-12.85L158.84-12.85Q157.84-6.05 154.44-2.73 151.04 0.6 145.19 0.6L145.19 0.6ZM145.39-3.1Q149.34-3.1 151.49-5.55 153.64-8 154.44-13.45L154.44-13.45Q154.74-15.55 154.74-17.15L154.74-17.15Q154.64-20.15 153.01-21.7 151.39-23.25 148.19-23.25L148.19-23.25Q144.24-23.25 142.09-20.78 139.94-18.3 139.14-12.85L139.14-12.85Q138.89-11.1 138.89-9.15L138.89-9.15Q138.99-6.2 140.61-4.65 142.24-3.1 145.39-3.1L145.39-3.1ZM161.84 0L166.49-26.3 169.84-26.3 169.64-22.35 169.94-22.35Q172.54-26.9 176.94-26.9L176.94-26.9Q178.29-26.9 179.24-26.5L179.24-26.5 178.49-22.25 176.64-22.25Q173.84-22.25 171.69-20.5 169.54-18.75 168.89-15.05L168.89-15.05 166.24 0 161.84 0ZM190.48 0.6Q184.63 0.6 181.76-1.95 178.88-4.5 178.88-9.8L178.88-9.8Q178.88-14.65 180.38-18.53 181.88-22.4 185.08-24.65 188.28-26.9 193.08-26.9L193.08-26.9Q198.08-26.9 200.73-24.6 203.38-22.3 203.38-17.85L203.38-17.85Q203.38-16.3 202.98-14.15L202.98-14.15 202.58-11.95 183.53-11.95Q183.38-11.25 183.38-10.05L183.38-10.05Q183.38-6.5 185.11-4.78 186.83-3.05 190.38-3.05L190.38-3.05Q193.23-3.05 195.26-4.5 197.28-5.95 197.78-8.95L197.78-8.95 202.08-8.95Q201.33-4.35 198.13-1.88 194.93 0.6 190.48 0.6L190.48 0.6ZM184.18-15.6L198.73-15.6Q198.93-16.3 198.93-17.55L198.93-17.55Q198.93-23.25 192.93-23.25L192.93-23.25Q189.53-23.25 187.31-21.28 185.08-19.3 184.18-15.6L184.18-15.6ZM207.53 9.1Q204.98 9.1 203.63 8.7L203.63 8.7 204.18 5.85 205.88 5.85Q210.93 5.85 213.58 0L213.58 0 208.08-26.3 212.63-26.3 215.23-13.15Q215.78-10.35 216.63-4.9L216.63-4.9 216.88-4.9Q219.13-10 220.68-13.15L220.68-13.15 227.18-26.3 231.78-26.3 218.73-1.35Q216.08 3.7 213.56 6.4 211.03 9.1 207.53 9.1L207.53 9.1Z" opacity="1" transform="matrix(1,0,0,1,0,0)" fill="#ffffff" class="wordmark-text-0" data-fill-palette-color="quaternary" id="text-0"></path></svg></g></svg></g><g transform="matrix(1,0,0,1,87.38396549676771,121.21249502747135)"><svg viewBox="0 0 220.75206900646455 27.628450256908025" height="27.628450256908025" width="220.75206900646455"><g transform="matrix(1,0,0,1,0,0)"><svg width="220.75206900646455" viewBox="2.3 -40.2 440.61 55.150000000000006" height="27.628450256908025" data-palette-color="#21272d"><path d="M27.1-13.45L27.1-1.5Q27.1-1.25 27.48-1.1 27.85-0.95 28.25-0.95L28.25-0.95 28.25 0 19.45 0 19.45-0.95Q19.85-0.95 20.23-1.1 20.6-1.25 20.6-1.5L20.6-1.5 20.6-11.9Q20.6-14.45 19.35-16.28 18.1-18.1 15.6-18.1L15.6-18.1Q13.05-18.1 11.35-16.4 9.65-14.7 9.65-11.5L9.65-11.5 9.65-1.5Q9.65-1.25 10.03-1.1 10.4-0.95 10.75-0.95L10.75-0.95 10.75 0 2.3 0 2.3-0.95Q2.65-0.95 3.03-1.1 3.4-1.25 3.4-1.5L3.4-1.5 3.4-36Q3.4-36.25 3.03-36.4 2.65-36.55 2.3-36.55L2.3-36.55 2.3-37.5 10.75-37.5 10.75-36.55Q10.4-36.55 10.03-36.4 9.65-36.25 9.65-36L9.65-36 9.65-20.75Q10.95-22 12.83-22.75 14.7-23.5 16.6-23.5L16.6-23.5Q19.85-23.5 22.23-22.15 24.6-20.8 25.85-18.53 27.1-16.25 27.1-13.45L27.1-13.45ZM55.35-21.5L55.35-1.5Q55.35-1.25 55.72-1.1 56.1-0.95 56.45-0.95L56.45-0.95 56.45 0 50.25 0 50.25-1.85Q47.6 0.45 44.1 0.45L44.1 0.45Q38.85 0.45 36.4-2.58 33.95-5.6 33.95-10.15L33.95-10.15 33.95-21.5Q33.95-21.75 33.57-21.9 33.2-22.05 32.85-22.05L32.85-22.05 32.85-23 41.35-23 41.35-22.05Q41-22.05 40.62-21.9 40.25-21.75 40.25-21.5L40.25-21.5 40.25-10.55Q40.25-8.4 41.35-6.93 42.45-5.45 44.75-5.45L44.75-5.45Q46.95-5.45 48.05-6.8 49.15-8.15 49.15-10.25L49.15-10.25 49.15-21.5Q49.15-21.75 48.77-21.9 48.4-22.05 48.05-22.05L48.05-22.05 48.05-23 56.45-23 56.45-22.05Q56.1-22.05 55.72-21.9 55.35-21.75 55.35-21.5L55.35-21.5ZM85.84-13.45L85.84-1.5Q85.84-1.25 86.22-1.1 86.59-0.95 87-0.95L87-0.95 87 0 78.2 0 78.2-0.95Q78.59-0.95 78.97-1.1 79.34-1.25 79.34-1.5L79.34-1.5 79.34-11.9Q79.34-14.45 78.09-16.28 76.84-18.1 74.34-18.1L74.34-18.1Q71.8-18.1 70.22-16.4 68.65-14.7 68.65-11.5L68.65-11.5 68.65-1.5Q68.65-1.25 69.02-1.1 69.4-0.95 69.8-0.95L69.8-0.95 69.8 0 61.05 0 61.05-0.95Q61.45-0.95 61.82-1.1 62.2-1.25 62.2-1.5L62.2-1.5 62.2-21.5Q62.2-21.75 61.82-21.9 61.45-22.05 61.1-22.05L61.1-22.05 61.1-23 68.65-23 68.65-20.95Q69.95-22.15 71.72-22.83 73.5-23.5 75.34-23.5L75.34-23.5Q78.55-23.5 80.92-22.15 83.3-20.8 84.57-18.53 85.84-16.25 85.84-13.45L85.84-13.45ZM110.99-23L118.34-23 118.34-22.05Q117.99-22.05 117.62-21.9 117.24-21.75 117.24-21.5L117.24-21.5 117.29 1.85Q117.29 8.1 113.69 11.53 110.09 14.95 103.89 14.95L103.89 14.95Q101.34 14.95 98.49 13.53 95.64 12.1 93.24 9.3L93.24 9.3Q93.19 9.15 92.94 9.15L92.94 9.15Q92.54 9.15 92.09 9.5L92.09 9.5 91.54 8.75 97.79 3.8 98.39 4.55Q98.14 4.75 97.92 5.1 97.69 5.45 97.84 5.7L97.84 5.7Q99.09 7.45 100.54 8.3 101.99 9.15 104.04 9.15L104.04 9.15Q107.29 9.15 109.14 7.58 110.99 6 110.99 2.8L110.99 2.8 110.99-1.75Q107.84 0.7 103.74 0.7L103.74 0.7Q100.04 0.7 97.17-0.83 94.29-2.35 92.67-5.13 91.04-7.9 91.04-11.5L91.04-11.5Q91.04-15.1 92.74-17.82 94.44-20.55 97.34-22.03 100.24-23.5 103.74-23.5L103.74-23.5Q107.94-23.5 110.99-21.2L110.99-21.2 110.99-23ZM104.04-4.65Q107.44-4.65 109.29-6.48 111.14-8.3 111.14-11.3L111.14-11.3Q111.14-14.3 109.14-16.25 107.14-18.2 104.04-18.2L104.04-18.2Q101.04-18.2 99.07-16.3 97.09-14.4 97.09-11.4L97.09-11.4Q97.09-8.3 99.09-6.48 101.09-4.65 104.04-4.65L104.04-4.65ZM137.59-24.5L138.54-24.5 138.54-16.45 137.59-16.45Q137.59-16.8 137.44-17.25 137.29-17.7 137.04-17.75L137.04-17.75 136.69-17.75Q135.14-17.75 133.56-16.88 131.99-16 130.97-14.58 129.94-13.15 129.94-11.55L129.94-11.55 129.94-1.5Q129.94-1.25 130.31-1.1 130.69-0.95 131.04-0.95L131.04-0.95 131.04 0 122.64 0 122.64-0.95Q122.99-0.95 123.37-1.1 123.74-1.25 123.74-1.5L123.74-1.5 123.74-21.5Q123.74-21.75 123.37-21.9 122.99-22.05 122.64-22.05L122.64-22.05 122.64-23 129.94-23 129.94-20.85Q131.29-22.1 133.19-22.85 135.09-23.6 136.99-23.6L136.99-23.6 137.04-23.6 137.09-23.6Q137.34-23.6 137.47-23.9 137.59-24.2 137.59-24.5L137.59-24.5ZM168.89-23L168.89-22.05Q167.84-22.05 167.59-21.65L167.59-21.65 150.09 12.8Q150.04 12.85 150.04 12.95L150.04 12.95Q150.04 13.25 150.39 13.45 150.74 13.65 151.29 13.65L151.29 13.65 151.29 14.6 141.89 14.6 141.89 13.65Q142.94 13.65 143.19 13.25L143.19 13.25 151.34-2.8 141.09-21.7Q140.89-22.05 139.79-22.05L139.79-22.05 139.79-23 149.04-23 149.04-22.05Q148.44-22.05 148.31-21.8 148.19-21.55 148.39-21.25L148.39-21.25 154.74-9.5 160.69-21.2Q160.74-21.25 160.74-21.35L160.74-21.35Q160.74-21.65 160.39-21.85 160.04-22.05 159.49-22.05L159.49-22.05 159.49-23 168.89-23ZM192.63-17.2Q190.78-15.85 190.11-14.5 189.44-13.15 189.53-11.3L189.53-11.3Q189.53-11.05 190.03-10.9 190.53-10.75 190.94-10.75L190.94-10.75 190.94-9.8 181.23-9.8 181.23-10.75Q181.63-10.75 182.08-10.9 182.53-11.05 182.53-11.3L182.53-11.3Q182.69-13.7 183.13-15.3 183.58-16.9 184.71-18.32 185.83-19.75 187.98-21.2L187.98-21.2 189.08-21.95Q190.73-23 191.63-23.78 192.53-24.55 193.13-25.75 193.73-26.95 193.73-28.65L193.73-28.65Q193.73-30.95 192.11-32.63 190.48-34.3 187.23-34.3L187.23-34.3Q184.48-34.3 182.63-32.83 180.78-31.35 180.38-28.25L180.38-28.25 180.38-28.2Q180.38-27.95 180.71-27.83 181.03-27.7 181.38-27.7L181.38-27.7 181.38-26.75 172.88-26.75 172.88-27.7Q173.23-27.7 173.63-27.85 174.03-28 174.03-28.25L174.03-28.25Q174.33-32 176.13-34.7 177.94-37.4 180.78-38.8 183.63-40.2 187.08-40.2L187.08-40.2Q191.08-40.2 194.06-38.68 197.03-37.15 198.63-34.58 200.23-32 200.23-29L200.23-29Q200.23-26 199.41-24.08 198.58-22.15 197.16-20.83 195.73-19.5 192.63-17.2L192.63-17.2ZM186.38-6.35Q188.38-6.35 189.76-4.95 191.13-3.55 191.13-1.55L191.13-1.55Q191.13 0.4 189.73 1.8 188.33 3.2 186.33 3.2L186.33 3.2Q184.38 3.2 183.01 1.8 181.63 0.4 181.63-1.55L181.63-1.55Q181.63-3.6 183.01-4.98 184.38-6.35 186.38-6.35L186.38-6.35ZM241.18-35.2L255.28-1.4Q255.43-0.95 256.48-0.95L256.48-0.95 256.48 0 246.33 0 246.33-0.95Q246.98-0.95 247.23-1.25 247.48-1.55 247.33-1.85L247.33-1.85 244.58-8.9 228.28-8.9 225.53-1.85 225.48-1.7Q225.48-1.4 225.75-1.18 226.03-0.95 226.48-0.95L226.48-0.95 226.48 0 216.63 0 216.63-0.95Q217.63-0.95 217.83-1.4L217.83-1.4 231.73-35.2Q231.88-35.5 231.88-35.75L231.88-35.75Q231.88-36.2 231.48-36.38 231.08-36.55 230.63-36.55L230.63-36.55 230.63-37.5 242.28-37.5 242.28-36.55Q241.83-36.55 241.43-36.38 241.03-36.2 241.03-35.75L241.03-35.75Q241.03-35.5 241.18-35.2L241.18-35.2ZM242.33-14.65L236.43-29.7 230.53-14.65 242.33-14.65ZM278.68-23L286.03-23 286.03-22.05Q285.68-22.05 285.3-21.9 284.93-21.75 284.93-21.5L284.93-21.5 284.98 1.85Q284.98 8.1 281.38 11.53 277.78 14.95 271.58 14.95L271.58 14.95Q269.03 14.95 266.18 13.53 263.33 12.1 260.93 9.3L260.93 9.3Q260.88 9.15 260.63 9.15L260.63 9.15Q260.23 9.15 259.78 9.5L259.78 9.5 259.23 8.75 265.48 3.8 266.08 4.55Q265.83 4.75 265.6 5.1 265.38 5.45 265.53 5.7L265.53 5.7Q266.78 7.45 268.23 8.3 269.68 9.15 271.73 9.15L271.73 9.15Q274.98 9.15 276.83 7.58 278.68 6 278.68 2.8L278.68 2.8 278.68-1.75Q275.53 0.7 271.43 0.7L271.43 0.7Q267.73 0.7 264.85-0.83 261.98-2.35 260.35-5.13 258.73-7.9 258.73-11.5L258.73-11.5Q258.73-15.1 260.43-17.82 262.13-20.55 265.03-22.03 267.93-23.5 271.43-23.5L271.43-23.5Q275.63-23.5 278.68-21.2L278.68-21.2 278.68-23ZM271.73-4.65Q275.13-4.65 276.98-6.48 278.83-8.3 278.83-11.3L278.83-11.3Q278.83-14.3 276.83-16.25 274.83-18.2 271.73-18.2L271.73-18.2Q268.73-18.2 266.75-16.3 264.78-14.4 264.78-11.4L264.78-11.4Q264.78-8.3 266.78-6.48 268.78-4.65 271.73-4.65L271.73-4.65ZM317.88-23L317.88-22.05Q317.53-22.05 317.15-21.9 316.78-21.75 316.78-21.5L316.78-21.5 316.78-1.5Q316.78-1.25 317.15-1.1 317.53-0.95 317.88-0.95L317.88-0.95 317.88 0 310.48 0 310.48-2.75Q307.33 0.65 302.53 0.65L302.53 0.65Q298.88 0.65 296.1-0.83 293.33-2.3 291.8-5.05 290.28-7.8 290.28-11.45L290.28-11.45Q290.28-15 291.95-17.78 293.63-20.55 296.43-22.08 299.23-23.6 302.53-23.6L302.53-23.6Q307.33-23.6 310.48-19.9L310.48-19.9 310.48-23 317.88-23ZM303.28-4.65Q305.33-4.65 306.95-5.58 308.58-6.5 309.48-8.03 310.38-9.55 310.38-11.3L310.38-11.3Q310.38-14.3 308.4-16.25 306.43-18.2 303.28-18.2L303.28-18.2Q300.23-18.2 298.25-16.3 296.28-14.4 296.28-11.45L296.28-11.45Q296.28-8.35 298.3-6.5 300.33-4.65 303.28-4.65L303.28-4.65ZM327.52-27.2Q325.92-27.2 324.8-28.3 323.67-29.4 323.67-31.05L323.67-31.05Q323.67-32.6 324.8-33.73 325.92-34.85 327.52-34.85L327.52-34.85Q329.12-34.85 330.22-33.73 331.32-32.6 331.32-31.05L331.32-31.05Q331.32-29.4 330.22-28.3 329.12-27.2 327.52-27.2L327.52-27.2ZM324.27-21.5Q324.27-21.75 323.9-21.9 323.52-22.05 323.17-22.05L323.17-22.05 323.17-23 331.77-23 331.77-22.05Q331.42-22.05 331.05-21.9 330.67-21.75 330.67-21.5L330.67-21.5 330.67-1.5Q330.67-1.25 331.05-1.1 331.42-0.95 331.77-0.95L331.77-0.95 331.77 0 323.17 0 323.17-0.95Q323.52-0.95 323.9-1.1 324.27-1.25 324.27-1.5L324.27-1.5 324.27-21.5ZM361.87-13.45L361.87-1.5Q361.87-1.25 362.25-1.1 362.62-0.95 363.02-0.95L363.02-0.95 363.02 0 354.22 0 354.22-0.95Q354.62-0.95 355-1.1 355.37-1.25 355.37-1.5L355.37-1.5 355.37-11.9Q355.37-14.45 354.12-16.28 352.87-18.1 350.37-18.1L350.37-18.1Q347.82-18.1 346.25-16.4 344.67-14.7 344.67-11.5L344.67-11.5 344.67-1.5Q344.67-1.25 345.05-1.1 345.42-0.95 345.82-0.95L345.82-0.95 345.82 0 337.07 0 337.07-0.95Q337.47-0.95 337.85-1.1 338.22-1.25 338.22-1.5L338.22-1.5 338.22-21.5Q338.22-21.75 337.85-21.9 337.47-22.05 337.12-22.05L337.12-22.05 337.12-23 344.67-23 344.67-20.95Q345.97-22.15 347.75-22.83 349.52-23.5 351.37-23.5L351.37-23.5Q354.57-23.5 356.95-22.15 359.32-20.8 360.6-18.53 361.87-16.25 361.87-13.45L361.87-13.45ZM402.57-17.2Q400.72-15.85 400.04-14.5 399.37-13.15 399.47-11.3L399.47-11.3Q399.47-11.05 399.97-10.9 400.47-10.75 400.87-10.75L400.87-10.75 400.87-9.8 391.17-9.8 391.17-10.75Q391.57-10.75 392.02-10.9 392.47-11.05 392.47-11.3L392.47-11.3Q392.62-13.7 393.07-15.3 393.52-16.9 394.64-18.32 395.77-19.75 397.92-21.2L397.92-21.2 399.02-21.95Q400.67-23 401.57-23.78 402.47-24.55 403.07-25.75 403.67-26.95 403.67-28.65L403.67-28.65Q403.67-30.95 402.04-32.63 400.42-34.3 397.17-34.3L397.17-34.3Q394.42-34.3 392.57-32.83 390.72-31.35 390.32-28.25L390.32-28.25 390.32-28.2Q390.32-27.95 390.64-27.83 390.97-27.7 391.32-27.7L391.32-27.7 391.32-26.75 382.82-26.75 382.82-27.7Q383.17-27.7 383.57-27.85 383.97-28 383.97-28.25L383.97-28.25Q384.27-32 386.07-34.7 387.87-37.4 390.72-38.8 393.57-40.2 397.02-40.2L397.02-40.2Q401.02-40.2 403.99-38.68 406.97-37.15 408.57-34.58 410.17-32 410.17-29L410.17-29Q410.17-26 409.34-24.08 408.52-22.15 407.09-20.83 405.67-19.5 402.57-17.2L402.57-17.2ZM396.32-6.35Q398.32-6.35 399.69-4.95 401.07-3.55 401.07-1.55L401.07-1.55Q401.07 0.4 399.67 1.8 398.27 3.2 396.27 3.2L396.27 3.2Q394.32 3.2 392.94 1.8 391.57 0.4 391.57-1.55L391.57-1.55Q391.57-3.6 392.94-4.98 394.32-6.35 396.32-6.35L396.32-6.35ZM435.31-17.2Q433.46-15.85 432.79-14.5 432.11-13.15 432.21-11.3L432.21-11.3Q432.21-11.05 432.71-10.9 433.21-10.75 433.61-10.75L433.61-10.75 433.61-9.8 423.91-9.8 423.91-10.75Q424.31-10.75 424.76-10.9 425.21-11.05 425.21-11.3L425.21-11.3Q425.36-13.7 425.81-15.3 426.26-16.9 427.39-18.32 428.51-19.75 430.66-21.2L430.66-21.2 431.76-21.95Q433.41-23 434.31-23.78 435.21-24.55 435.81-25.75 436.41-26.95 436.41-28.65L436.41-28.65Q436.41-30.95 434.79-32.63 433.16-34.3 429.91-34.3L429.91-34.3Q427.16-34.3 425.31-32.83 423.46-31.35 423.06-28.25L423.06-28.25 423.06-28.2Q423.06-27.95 423.39-27.83 423.71-27.7 424.06-27.7L424.06-27.7 424.06-26.75 415.56-26.75 415.56-27.7Q415.91-27.7 416.31-27.85 416.71-28 416.71-28.25L416.71-28.25Q417.01-32 418.81-34.7 420.61-37.4 423.46-38.8 426.31-40.2 429.76-40.2L429.76-40.2Q433.76-40.2 436.74-38.68 439.71-37.15 441.31-34.58 442.91-32 442.91-29L442.91-29Q442.91-26 442.09-24.08 441.26-22.15 439.84-20.83 438.41-19.5 435.31-17.2L435.31-17.2ZM429.06-6.35Q431.06-6.35 432.44-4.95 433.81-3.55 433.81-1.55L433.81-1.55Q433.81 0.4 432.41 1.8 431.01 3.2 429.01 3.2L429.01 3.2Q427.06 3.2 425.69 1.8 424.31 0.4 424.31-1.55L424.31-1.55Q424.31-3.6 425.69-4.98 427.06-6.35 429.06-6.35L429.06-6.35Z" opacity="1" transform="matrix(1,0,0,1,0,0)" fill="#000000" class="slogan-text-1" data-fill-palette-color="secondary" id="text-1"></path></svg></g></svg></g></svg></g></svg></g><g transform="matrix(1,0,0,1,0,29.166871637926974)"><svg viewBox="0 0 82.9665981516907 90.50720200852541" height="90.50720200852541" width="82.9665981516907"><g><svg xmlns="http://www.w3.org/2000/svg" xmlns:xlink="http://www.w3.org/1999/xlink" version="1.1" x="0" y="0" viewBox="13.819 10.984 62.363 68.031" enable-background="new 0 0 90 90" xml:space="preserve" height="90.50720200852541" width="82.9665981516907" class="icon-icon-0" data-fill-palette-color="accent" id="icon-0"><path fill="#000000" d="M45.001 10.984C27.808 10.984 13.819 24.999 13.819 42.23L13.91 67.66C13.91 73.922 18.995 79.015 25.245 79.015H64.847C71.096 79.015 76.182 73.921 76.182 67.66V42.226C76.181 24.999 62.194 10.984 45.001 10.984M73.28 67.66C73.28 72.319 69.498 76.109 64.846 76.109H25.245C20.594 76.109 16.811 72.319 16.811 67.655L16.72 42.225C16.72 26.601 29.407 13.89 45 13.89S73.279 26.601 73.279 42.225zM62.361 50.885C51.212 53.86 39.147 53.824 28.015 50.785A0.582 0.582 0 0 0 27.71 51.909 67 67 0 0 0 40.466 54.082V56.63A6.7 6.7 0 0 1 39.288 55.195 0.583 0.583 0 0 0 38.295 55.801 7.8 7.8 0 0 0 40.446 58.119C40.452 58.123 40.459 58.125 40.466 58.13V59.693A4.544 4.544 0 0 0 45.001 64.236C47.501 64.236 49.535 62.198 49.535 59.693V58.132A7.85 7.85 0 0 0 51.706 55.802 0.583 0.583 0 1 0 50.712 55.196 6.6 6.6 0 0 1 49.535 56.629V54.133A67 67 0 0 0 62.66 52.01 0.581 0.581 0 1 0 62.361 50.885M48.373 59.693A3.38 3.38 0 0 1 45.001 63.072 3.38 3.38 0 0 1 41.628 59.693V54.154C42.557 54.205 43.487 54.236 44.419 54.25V58.149A0.582 0.582 0 1 0 45.582 58.149V54.261A67 67 0 0 0 48.373 54.191zM22.588 39.933H23.75V46.161A2.337 2.337 0 0 1 21.417 48.498 2.337 2.337 0 0 1 19.086 46.161V39.933H20.248V46.161C20.248 46.807 20.772 47.333 21.417 47.333 22.063 47.333 22.587 46.808 22.587 46.161zM66.25 46.168V42.27A2.337 2.337 0 0 1 68.581 39.934 2.337 2.337 0 0 1 70.913 42.27V46.168A2.337 2.337 0 0 1 68.581 48.504 2.337 2.337 0 0 1 66.25 46.168" data-fill-palette-color="accent"></path></svg></g></svg></g></svg></g></svg></g><defs></defs></svg><rect width="395.52" height="119.73167198537689" fill="none" stroke="none" visibility="hidden"></rect></g></svg></g></svg>